<svg xmlns="http://www.w3.org/2000/svg" xmlns:xlink="http://www.w3.org/1999/xlink" width="300" zoomAndPan="magnify" viewBox="0 0 224.87999 225" height="300" preserveAspectRatio="xMidYMid meet" version="1.0"><defs><g/></defs><g fill="#5e1ef8" fill-opacity="1"><g transform="translate(34.563541, 203.936018)"><g><path d="M 146.890625 -12.6875 C 146.890625 -5.613281 141.96875 -2.078125 132.125 -2.078125 C 118.65625 -2.078125 104.535156 -9.070312 89.765625 -23.0625 C 75.003906 -37.050781 64.515625 -51.644531 58.296875 -66.84375 C 55.523438 -58.550781 53.617188 -52.9375 52.578125 -50 C 51.546875 -47.0625 49.992188 -42.394531 47.921875 -36 C 45.859375 -29.613281 44.265625 -24.863281 43.140625 -21.75 C 42.015625 -18.644531 40.757812 -15.367188 39.375 -11.921875 C 36.789062 -5.359375 34.285156 -2.078125 31.859375 -2.078125 C 27.890625 -2.078125 23.097656 -5.398438 17.484375 -12.046875 C 11.867188 -18.691406 9.0625 -24.085938 9.0625 -28.234375 C 9.0625 -32.378906 11.050781 -40.066406 15.03125 -51.296875 C 26.769531 -85.671875 33.503906 -117.019531 35.234375 -145.34375 C 31.953125 -147.9375 29.015625 -151.5625 26.421875 -156.21875 C 23.835938 -160.882812 22.546875 -164.769531 22.546875 -167.875 C 22.546875 -173.0625 29.238281 -178.503906 42.625 -184.203125 C 56.007812 -189.898438 71.46875 -192.75 89 -192.75 C 106.53125 -192.75 121.164062 -188.601562 132.90625 -180.3125 C 144.65625 -172.019531 150.53125 -161.226562 150.53125 -147.9375 C 150.53125 -138.09375 147.632812 -128.632812 141.84375 -119.5625 C 136.0625 -110.5 129.757812 -103.414062 122.9375 -98.3125 C 116.113281 -93.21875 109.804688 -88.597656 104.015625 -84.453125 C 98.234375 -80.304688 95.34375 -77.628906 95.34375 -76.421875 C 95.34375 -72.273438 96.722656 -68.34375 99.484375 -64.625 C 102.242188 -60.914062 106.128906 -56.597656 111.140625 -51.671875 C 116.148438 -46.753906 120.46875 -42.613281 124.09375 -39.25 C 127.71875 -35.882812 130.695312 -33.078125 133.03125 -30.828125 C 135.363281 -28.585938 137.65625 -26.253906 139.90625 -23.828125 C 144.5625 -19.335938 146.890625 -15.625 146.890625 -12.6875 Z M 110.625 -145.34375 C 110.625 -152.59375 103.539062 -156.21875 89.375 -156.21875 C 82.644531 -156.21875 74.613281 -154.320312 65.28125 -150.53125 C 69.601562 -143.957031 71.765625 -137.910156 71.765625 -132.390625 C 71.765625 -122.367188 70.382812 -111.316406 67.625 -99.234375 C 69.519531 -100.609375 73.054688 -103.066406 78.234375 -106.609375 C 83.421875 -110.148438 87.4375 -113 90.28125 -115.15625 C 93.132812 -117.320312 96.375 -120.128906 100 -123.578125 C 107.082031 -130.316406 110.625 -137.570312 110.625 -145.34375 Z M 110.625 -145.34375 "/></g></g></g></svg>